solid OpenSCAD_Model
  facet normal 1 -0 0
    outer loop
      vertex 39.85 9 5
      vertex 39.85 31 0
      vertex 39.85 31 5
    endloop
  endfacet
  facet normal 1 0 0
    outer loop
      vertex 39.85 31 0
      vertex 39.85 9 5
      vertex 39.85 9 0
    endloop
  endfacet
  facet normal 0 0 -1
    outer loop
      vertex 41 0 5
      vertex 44 3 5
      vertex 43.9743 2.60842 5
    endloop
  endfacet
  facet normal 0 0 -1
    outer loop
      vertex 44 3 5
      vertex 40.05 39 5
      vertex 44 97 5
    endloop
  endfacet
  facet normal 0 0 -1
    outer loop
      vertex 41 0 5
      vertex 43.9743 2.60842 5
      vertex 43.8978 2.22354 5
    endloop
  endfacet
  facet normal 0 0 -1
    outer loop
      vertex 40.05 61 5
      vertex 44 97 5
      vertex 40.05 39 5
    endloop
  endfacet
  facet normal 0 0 -1
    outer loop
      vertex 41 0 5
      vertex 43.8978 2.22354 5
      vertex 43.7716 1.85195 5
    endloop
  endfacet
  facet normal 0 -0 -1
    outer loop
      vertex 40.25 69 5
      vertex 44 97 5
      vertex 40.05 61 5
    endloop
  endfacet
  facet normal 0 0 -1
    outer loop
      vertex 41 0 5
      vertex 43.7716 1.85195 5
      vertex 43.5981 1.5 5
    endloop
  endfacet
  facet normal 0 0 -1
    outer loop
      vertex 40.25 91 5
      vertex 44 97 5
      vertex 40.25 69 5
    endloop
  endfacet
  facet normal 0 0 -1
    outer loop
      vertex 41 0 5
      vertex 43.5981 1.5 5
      vertex 43.3801 1.17372 5
    endloop
  endfacet
  facet normal 0 -0 -1
    outer loop
      vertex 41 100 5
      vertex 44 97 5
      vertex 40.25 91 5
    endloop
  endfacet
  facet normal 0 0 -1
    outer loop
      vertex 41 0 5
      vertex 43.3801 1.17372 5
      vertex 43.1213 0.878679 5
    endloop
  endfacet
  facet normal 0 0 -1
    outer loop
      vertex 44 97 5
      vertex 41 100 5
      vertex 43.9743 97.3916 5
    endloop
  endfacet
  facet normal 0 0 -1
    outer loop
      vertex 41 0 5
      vertex 43.1213 0.878679 5
      vertex 42.8263 0.61994 5
    endloop
  endfacet
  facet normal 0 0 -1
    outer loop
      vertex 43.9743 97.3916 5
      vertex 41 100 5
      vertex 43.8978 97.7765 5
    endloop
  endfacet
  facet normal 0 0 -1
    outer loop
      vertex 41 0 5
      vertex 42.8263 0.61994 5
      vertex 42.5 0.401923 5
    endloop
  endfacet
  facet normal 0 0 -1
    outer loop
      vertex 43.8978 97.7765 5
      vertex 41 100 5
      vertex 43.7716 98.148 5
    endloop
  endfacet
  facet normal 0 0 -1
    outer loop
      vertex 41 0 5
      vertex 42.5 0.401923 5
      vertex 42.148 0.228361 5
    endloop
  endfacet
  facet normal 0 0 -1
    outer loop
      vertex 43.3801 98.8263 5
      vertex 41 100 5
      vertex 43.1213 99.1213 5
    endloop
  endfacet
  facet normal 0 0 -1
    outer loop
      vertex 41 0 5
      vertex 42.148 0.228361 5
      vertex 41.7765 0.102222 5
    endloop
  endfacet
  facet normal 0 0 -1
    outer loop
      vertex 43.1213 99.1213 5
      vertex 41 100 5
      vertex 42.8263 99.3801 5
    endloop
  endfacet
  facet normal 0 0 -1
    outer loop
      vertex 41 0 5
      vertex 41.7765 0.102222 5
      vertex 41.3916 0.0256653 5
    endloop
  endfacet
  facet normal 0 0 -1
    outer loop
      vertex 42.8263 99.3801 5
      vertex 41 100 5
      vertex 42.5 99.5981 5
    endloop
  endfacet
  facet normal -0 0 -1
    outer loop
      vertex 44 3 5
      vertex 41 0 5
      vertex 39.85 9 5
    endloop
  endfacet
  facet normal 0 0 -1
    outer loop
      vertex 42.5 99.5981 5
      vertex 41 100 5
      vertex 42.148 99.7716 5
    endloop
  endfacet
  facet normal 0 0 -1
    outer loop
      vertex 42.148 99.7716 5
      vertex 41 100 5
      vertex 41.7765 99.8978 5
    endloop
  endfacet
  facet normal 0 0 -1
    outer loop
      vertex 43.7716 98.148 5
      vertex 41 100 5
      vertex 43.5981 98.5 5
    endloop
  endfacet
  facet normal 0 0 -1
    outer loop
      vertex 44 3 5
      vertex 39.85 9 5
      vertex 39.85 31 5
    endloop
  endfacet
  facet normal 0 0 -1
    outer loop
      vertex 41 0 5
      vertex 4.15 9 5
      vertex 39.85 9 5
    endloop
  endfacet
  facet normal 0 0 -1
    outer loop
      vertex 0 3 5
      vertex 4.15 31 5
      vertex 4.15 9 5
    endloop
  endfacet
  facet normal 0 0 -1
    outer loop
      vertex 0 97 5
      vertex 3.95 61 5
      vertex 3.95 39 5
    endloop
  endfacet
  facet normal -0 0 -1
    outer loop
      vertex 4.15 31 5
      vertex 0 3 5
      vertex 3.95 39 5
    endloop
  endfacet
  facet normal 0 0 -1
    outer loop
      vertex 0 97 5
      vertex 3.95 39 5
      vertex 0 3 5
    endloop
  endfacet
  facet normal 0 0 -1
    outer loop
      vertex 0 3 5
      vertex 4.15 9 5
      vertex 3 0 5
    endloop
  endfacet
  facet normal 0 0 -1
    outer loop
      vertex 3 0 5
      vertex 4.15 9 5
      vertex 41 0 5
    endloop
  endfacet
  facet normal 0 0 -1
    outer loop
      vertex 41.7765 99.8978 5
      vertex 41 100 5
      vertex 41.3916 99.9743 5
    endloop
  endfacet
  facet normal 0 0 -1
    outer loop
      vertex 3.75 91 5
      vertex 41 100 5
      vertex 40.25 91 5
    endloop
  endfacet
  facet normal 0 0 -1
    outer loop
      vertex 3.75 91 5
      vertex 3 100 5
      vertex 41 100 5
    endloop
  endfacet
  facet normal 0 0 -1
    outer loop
      vertex 3.95 61 5
      vertex 0 97 5
      vertex 3.75 69 5
    endloop
  endfacet
  facet normal 0 0 -1
    outer loop
      vertex 0 3 5
      vertex 3 0 5
      vertex 2.60842 0.0256653 5
    endloop
  endfacet
  facet normal 0 0 -1
    outer loop
      vertex 3.75 69 5
      vertex 0 97 5
      vertex 3.75 91 5
    endloop
  endfacet
  facet normal 0 0 -1
    outer loop
      vertex 0 3 5
      vertex 2.60842 0.0256653 5
      vertex 2.22354 0.102222 5
    endloop
  endfacet
  facet normal 0 0 -1
    outer loop
      vertex 3.75 91 5
      vertex 0 97 5
      vertex 3 100 5
    endloop
  endfacet
  facet normal 0 0 -1
    outer loop
      vertex 0 3 5
      vertex 2.22354 0.102222 5
      vertex 1.85195 0.228361 5
    endloop
  endfacet
  facet normal 0 0 -1
    outer loop
      vertex 3 100 5
      vertex 0 97 5
      vertex 2.60842 99.9743 5
    endloop
  endfacet
  facet normal 0 0 -1
    outer loop
      vertex 0 3 5
      vertex 1.85195 0.228361 5
      vertex 1.5 0.401923 5
    endloop
  endfacet
  facet normal 0 0 -1
    outer loop
      vertex 2.60842 99.9743 5
      vertex 0 97 5
      vertex 2.22354 99.8978 5
    endloop
  endfacet
  facet normal 0 0 -1
    outer loop
      vertex 0 3 5
      vertex 1.5 0.401923 5
      vertex 1.17372 0.61994 5
    endloop
  endfacet
  facet normal 0 0 -1
    outer loop
      vertex 2.22354 99.8978 5
      vertex 0 97 5
      vertex 1.85195 99.7716 5
    endloop
  endfacet
  facet normal 0 0 -1
    outer loop
      vertex 0 3 5
      vertex 1.17372 0.61994 5
      vertex 0.878679 0.878679 5
    endloop
  endfacet
  facet normal 0 0 -1
    outer loop
      vertex 1.85195 99.7716 5
      vertex 0 97 5
      vertex 1.5 99.5981 5
    endloop
  endfacet
  facet normal 0 0 -1
    outer loop
      vertex 0 3 5
      vertex 0.878679 0.878679 5
      vertex 0.61994 1.17372 5
    endloop
  endfacet
  facet normal 0 0 -1
    outer loop
      vertex 1.5 99.5981 5
      vertex 0 97 5
      vertex 1.17372 99.3801 5
    endloop
  endfacet
  facet normal 0 0 -1
    outer loop
      vertex 0 3 5
      vertex 0.61994 1.17372 5
      vertex 0.401923 1.5 5
    endloop
  endfacet
  facet normal 0 0 -1
    outer loop
      vertex 1.17372 99.3801 5
      vertex 0 97 5
      vertex 0.878679 99.1213 5
    endloop
  endfacet
  facet normal 0 0 -1
    outer loop
      vertex 0 3 5
      vertex 0.401923 1.5 5
      vertex 0.228361 1.85195 5
    endloop
  endfacet
  facet normal 0 0 -1
    outer loop
      vertex 0.878679 99.1213 5
      vertex 0 97 5
      vertex 0.61994 98.8263 5
    endloop
  endfacet
  facet normal 0 0 -1
    outer loop
      vertex 0 3 5
      vertex 0.228361 1.85195 5
      vertex 0.102222 2.22354 5
    endloop
  endfacet
  facet normal 0 0 -1
    outer loop
      vertex 0.61994 98.8263 5
      vertex 0 97 5
      vertex 0.401923 98.5 5
    endloop
  endfacet
  facet normal 0 0 -1
    outer loop
      vertex 0 3 5
      vertex 0.102222 2.22354 5
      vertex 0.0256653 2.60842 5
    endloop
  endfacet
  facet normal 0 0 -1
    outer loop
      vertex 0.401923 98.5 5
      vertex 0 97 5
      vertex 0.228361 98.148 5
    endloop
  endfacet
  facet normal 0 0 -1
    outer loop
      vertex 0.228361 98.148 5
      vertex 0 97 5
      vertex 0.102222 97.7765 5
    endloop
  endfacet
  facet normal 0 0 -1
    outer loop
      vertex 0.102222 97.7765 5
      vertex 0 97 5
      vertex 0.0256653 97.3916 5
    endloop
  endfacet
  facet normal 0 0 -1
    outer loop
      vertex 43.5981 98.5 5
      vertex 41 100 5
      vertex 43.3801 98.8263 5
    endloop
  endfacet
  facet normal 0 0 -1
    outer loop
      vertex 3.95 61 5
      vertex 40.25 69 5
      vertex 40.05 61 5
    endloop
  endfacet
  facet normal -0 0 -1
    outer loop
      vertex 40.25 69 5
      vertex 3.95 61 5
      vertex 3.75 69 5
    endloop
  endfacet
  facet normal 0 0 -1
    outer loop
      vertex 44 3 5
      vertex 39.85 31 5
      vertex 40.05 39 5
    endloop
  endfacet
  facet normal 0 0 -1
    outer loop
      vertex 4.15 31 5
      vertex 40.05 39 5
      vertex 39.85 31 5
    endloop
  endfacet
  facet normal -0 0 -1
    outer loop
      vertex 40.05 39 5
      vertex 4.15 31 5
      vertex 3.95 39 5
    endloop
  endfacet
  facet normal 0 0 -1
    outer loop
      vertex 4.15 9 0
      vertex 39.85 31 0
      vertex 39.85 9 0
    endloop
  endfacet
  facet normal -0 0 -1
    outer loop
      vertex 39.85 31 0
      vertex 4.15 9 0
      vertex 4.15 31 0
    endloop
  endfacet
  facet normal -1 0 0
    outer loop
      vertex 4.15 9 0
      vertex 4.15 31 5
      vertex 4.15 31 0
    endloop
  endfacet
  facet normal -1 -0 0
    outer loop
      vertex 4.15 31 5
      vertex 4.15 9 0
      vertex 4.15 9 5
    endloop
  endfacet
  facet normal 0 1 -0
    outer loop
      vertex 39.85 31 0
      vertex 4.15 31 5
      vertex 39.85 31 5
    endloop
  endfacet
  facet normal 0 1 0
    outer loop
      vertex 4.15 31 5
      vertex 39.85 31 0
      vertex 4.15 31 0
    endloop
  endfacet
  facet normal 0 -1 0
    outer loop
      vertex 4.15 9 0
      vertex 39.85 9 5
      vertex 4.15 9 5
    endloop
  endfacet
  facet normal 0 -1 -0
    outer loop
      vertex 39.85 9 5
      vertex 4.15 9 0
      vertex 39.85 9 0
    endloop
  endfacet
  facet normal 1 -0 0
    outer loop
      vertex 40.05 39 5
      vertex 40.05 61 0
      vertex 40.05 61 5
    endloop
  endfacet
  facet normal 1 0 0
    outer loop
      vertex 40.05 61 0
      vertex 40.05 39 5
      vertex 40.05 39 0
    endloop
  endfacet
  facet normal 0 0 -1
    outer loop
      vertex 3.95 39 0
      vertex 40.05 61 0
      vertex 40.05 39 0
    endloop
  endfacet
  facet normal -0 0 -1
    outer loop
      vertex 40.05 61 0
      vertex 3.95 39 0
      vertex 3.95 61 0
    endloop
  endfacet
  facet normal -1 0 0
    outer loop
      vertex 3.95 39 0
      vertex 3.95 61 5
      vertex 3.95 61 0
    endloop
  endfacet
  facet normal -1 -0 0
    outer loop
      vertex 3.95 61 5
      vertex 3.95 39 0
      vertex 3.95 39 5
    endloop
  endfacet
  facet normal 0 1 -0
    outer loop
      vertex 40.05 61 0
      vertex 3.95 61 5
      vertex 40.05 61 5
    endloop
  endfacet
  facet normal 0 1 0
    outer loop
      vertex 3.95 61 5
      vertex 40.05 61 0
      vertex 3.95 61 0
    endloop
  endfacet
  facet normal 0 -1 0
    outer loop
      vertex 3.95 39 0
      vertex 40.05 39 5
      vertex 3.95 39 5
    endloop
  endfacet
  facet normal 0 -1 -0
    outer loop
      vertex 40.05 39 5
      vertex 3.95 39 0
      vertex 40.05 39 0
    endloop
  endfacet
  facet normal 1 -0 0
    outer loop
      vertex 40.25 69 5
      vertex 40.25 91 0
      vertex 40.25 91 5
    endloop
  endfacet
  facet normal 1 0 0
    outer loop
      vertex 40.25 91 0
      vertex 40.25 69 5
      vertex 40.25 69 0
    endloop
  endfacet
  facet normal 0 0 -1
    outer loop
      vertex 3.75 69 0
      vertex 40.25 91 0
      vertex 40.25 69 0
    endloop
  endfacet
  facet normal -0 0 -1
    outer loop
      vertex 40.25 91 0
      vertex 3.75 69 0
      vertex 3.75 91 0
    endloop
  endfacet
  facet normal -1 0 0
    outer loop
      vertex 3.75 69 0
      vertex 3.75 91 5
      vertex 3.75 91 0
    endloop
  endfacet
  facet normal -1 -0 0
    outer loop
      vertex 3.75 91 5
      vertex 3.75 69 0
      vertex 3.75 69 5
    endloop
  endfacet
  facet normal 0 1 -0
    outer loop
      vertex 40.25 91 0
      vertex 3.75 91 5
      vertex 40.25 91 5
    endloop
  endfacet
  facet normal 0 1 0
    outer loop
      vertex 3.75 91 5
      vertex 40.25 91 0
      vertex 3.75 91 0
    endloop
  endfacet
  facet normal 0 -1 0
    outer loop
      vertex 3.75 69 0
      vertex 40.25 69 5
      vertex 3.75 69 5
    endloop
  endfacet
  facet normal 0 -1 -0
    outer loop
      vertex 40.25 69 5
      vertex 3.75 69 0
      vertex 40.25 69 0
    endloop
  endfacet
  facet normal -0.0654906 0.997853 0
    outer loop
      vertex 3 100 5
      vertex 2.60842 99.9743 7.6
      vertex 3 100 7.6
    endloop
  endfacet
  facet normal -0.0654906 0.997853 0
    outer loop
      vertex 2.60842 99.9743 7.6
      vertex 3 100 5
      vertex 2.60842 99.9743 5
    endloop
  endfacet
  facet normal 0.65939 -0.751801 0
    outer loop
      vertex 42.8263 0.61994 5
      vertex 43.1213 0.878679 7.6
      vertex 42.8263 0.61994 7.6
    endloop
  endfacet
  facet normal 0.65939 -0.751801 0
    outer loop
      vertex 43.1213 0.878679 7.6
      vertex 42.8263 0.61994 5
      vertex 43.1213 0.878679 5
    endloop
  endfacet
  facet normal -0.195089 -0.980786 0
    outer loop
      vertex 2.22354 0.102222 5
      vertex 2.60842 0.0256653 7.6
      vertex 2.22354 0.102222 7.6
    endloop
  endfacet
  facet normal -0.195089 -0.980786 -0
    outer loop
      vertex 2.60842 0.0256653 7.6
      vertex 2.22354 0.102222 5
      vertex 2.60842 0.0256653 5
    endloop
  endfacet
  facet normal 1 -0 0
    outer loop
      vertex 44 3 7.6
      vertex 44 97 5
      vertex 44 97 7.6
    endloop
  endfacet
  facet normal 1 0 0
    outer loop
      vertex 44 97 5
      vertex 44 3 7.6
      vertex 44 3 5
    endloop
  endfacet
  facet normal 0 1 -0
    outer loop
      vertex 41 100 5
      vertex 3 100 7.6
      vertex 41 100 7.6
    endloop
  endfacet
  facet normal 0 1 0
    outer loop
      vertex 3 100 7.6
      vertex 41 100 5
      vertex 3 100 5
    endloop
  endfacet
  facet normal 0.997853 0.0654873 0
    outer loop
      vertex 44 97 7.6
      vertex 43.9743 97.3916 5
      vertex 43.9743 97.3916 7.6
    endloop
  endfacet
  facet normal 0.997853 0.0654873 0
    outer loop
      vertex 43.9743 97.3916 5
      vertex 44 97 7.6
      vertex 44 97 5
    endloop
  endfacet
  facet normal -1 0 0
    outer loop
      vertex 0 3 5
      vertex 0 97 7.6
      vertex 0 97 5
    endloop
  endfacet
  facet normal -1 -0 0
    outer loop
      vertex 0 97 7.6
      vertex 0 3 5
      vertex 0 3 7.6
    endloop
  endfacet
  facet normal 0 -1 0
    outer loop
      vertex 3 0 5
      vertex 41 0 7.6
      vertex 3 0 7.6
    endloop
  endfacet
  facet normal 0 -1 -0
    outer loop
      vertex 41 0 7.6
      vertex 3 0 5
      vertex 41 0 5
    endloop
  endfacet
  facet normal -0.442288 -0.896873 0
    outer loop
      vertex 1.5 0.401923 5
      vertex 1.85195 0.228361 7.6
      vertex 1.5 0.401923 7.6
    endloop
  endfacet
  facet normal -0.442288 -0.896873 -0
    outer loop
      vertex 1.85195 0.228361 7.6
      vertex 1.5 0.401923 5
      vertex 1.85195 0.228361 5
    endloop
  endfacet
  facet normal -0.896873 -0.442288 0
    outer loop
      vertex 0.401923 1.5 5
      vertex 0.228361 1.85195 7.6
      vertex 0.228361 1.85195 5
    endloop
  endfacet
  facet normal -0.896873 -0.442288 0
    outer loop
      vertex 0.228361 1.85195 7.6
      vertex 0.401923 1.5 5
      vertex 0.401923 1.5 7.6
    endloop
  endfacet
  facet normal 0.751724 0.659478 0
    outer loop
      vertex 43.3801 98.8263 7.6
      vertex 43.1213 99.1213 5
      vertex 43.1213 99.1213 7.6
    endloop
  endfacet
  facet normal 0.751724 0.659478 0
    outer loop
      vertex 43.1213 99.1213 5
      vertex 43.3801 98.8263 7.6
      vertex 43.3801 98.8263 5
    endloop
  endfacet
  facet normal 0.946858 0.321651 0
    outer loop
      vertex 43.8978 97.7765 7.6
      vertex 43.7716 98.148 5
      vertex 43.7716 98.148 7.6
    endloop
  endfacet
  facet normal 0.946858 0.321651 0
    outer loop
      vertex 43.7716 98.148 5
      vertex 43.8978 97.7765 7.6
      vertex 43.8978 97.7765 5
    endloop
  endfacet
  facet normal -0.0654026 -0.997859 0
    outer loop
      vertex 2.60842 0.0256653 5
      vertex 3 0 7.6
      vertex 2.60842 0.0256653 7.6
    endloop
  endfacet
  facet normal -0.0654026 -0.997859 -0
    outer loop
      vertex 3 0 7.6
      vertex 2.60842 0.0256653 5
      vertex 3 0 5
    endloop
  endfacet
  facet normal 0.831485 -0.555547 0
    outer loop
      vertex 43.3801 1.17372 7.6
      vertex 43.5981 1.5 5
      vertex 43.5981 1.5 7.6
    endloop
  endfacet
  facet normal 0.831485 -0.555547 0
    outer loop
      vertex 43.5981 1.5 5
      vertex 43.3801 1.17372 7.6
      vertex 43.3801 1.17372 5
    endloop
  endfacet
  facet normal -0.321442 -0.946929 0
    outer loop
      vertex 1.85195 0.228361 5
      vertex 2.22354 0.102222 7.6
      vertex 1.85195 0.228361 7.6
    endloop
  endfacet
  facet normal -0.321442 -0.946929 -0
    outer loop
      vertex 2.22354 0.102222 7.6
      vertex 1.85195 0.228361 5
      vertex 2.22354 0.102222 5
    endloop
  endfacet
  facet normal 0.44211 0.896961 -0
    outer loop
      vertex 42.5 99.5981 5
      vertex 42.148 99.7716 7.6
      vertex 42.5 99.5981 7.6
    endloop
  endfacet
  facet normal 0.44211 0.896961 0
    outer loop
      vertex 42.148 99.7716 7.6
      vertex 42.5 99.5981 5
      vertex 42.148 99.7716 5
    endloop
  endfacet
  facet normal 0.980815 0.19494 0
    outer loop
      vertex 43.9743 97.3916 7.6
      vertex 43.8978 97.7765 5
      vertex 43.8978 97.7765 7.6
    endloop
  endfacet
  facet normal 0.980815 0.19494 0
    outer loop
      vertex 43.8978 97.7765 5
      vertex 43.9743 97.3916 7.6
      vertex 43.9743 97.3916 5
    endloop
  endfacet
  facet normal 0.946882 -0.321582 0
    outer loop
      vertex 43.7716 1.85195 7.6
      vertex 43.8978 2.22354 5
      vertex 43.8978 2.22354 7.6
    endloop
  endfacet
  facet normal 0.946882 -0.321582 0
    outer loop
      vertex 43.8978 2.22354 5
      vertex 43.7716 1.85195 7.6
      vertex 43.7716 1.85195 5
    endloop
  endfacet
  facet normal -0.831481 0.555553 0
    outer loop
      vertex 0.401923 98.5 5
      vertex 0.61994 98.8263 7.6
      vertex 0.61994 98.8263 5
    endloop
  endfacet
  facet normal -0.831481 0.555553 0
    outer loop
      vertex 0.61994 98.8263 7.6
      vertex 0.401923 98.5 5
      vertex 0.401923 98.5 7.6
    endloop
  endfacet
  facet normal 0.0654873 0.997853 -0
    outer loop
      vertex 41.3916 99.9743 5
      vertex 41 100 7.6
      vertex 41.3916 99.9743 7.6
    endloop
  endfacet
  facet normal 0.0654873 0.997853 0
    outer loop
      vertex 41 100 7.6
      vertex 41.3916 99.9743 5
      vertex 41 100 5
    endloop
  endfacet
  facet normal -0.997859 0.0653993 0
    outer loop
      vertex 0 97 5
      vertex 0.0256653 97.3916 7.6
      vertex 0.0256653 97.3916 5
    endloop
  endfacet
  facet normal -0.997859 0.0653993 0
    outer loop
      vertex 0.0256653 97.3916 7.6
      vertex 0 97 5
      vertex 0 97 7.6
    endloop
  endfacet
  facet normal -0.831465 -0.555577 0
    outer loop
      vertex 0.61994 1.17372 5
      vertex 0.401923 1.5 7.6
      vertex 0.401923 1.5 5
    endloop
  endfacet
  facet normal -0.831465 -0.555577 0
    outer loop
      vertex 0.401923 1.5 7.6
      vertex 0.61994 1.17372 5
      vertex 0.61994 1.17372 7.6
    endloop
  endfacet
  facet normal 0.321512 -0.946905 0
    outer loop
      vertex 41.7765 0.102222 5
      vertex 42.148 0.228361 7.6
      vertex 41.7765 0.102222 7.6
    endloop
  endfacet
  facet normal 0.321512 -0.946905 0
    outer loop
      vertex 42.148 0.228361 7.6
      vertex 41.7765 0.102222 5
      vertex 42.148 0.228361 5
    endloop
  endfacet
  facet normal -0.321582 0.946882 0
    outer loop
      vertex 2.22354 99.8978 5
      vertex 1.85195 99.7716 7.6
      vertex 2.22354 99.8978 7.6
    endloop
  endfacet
  facet normal -0.321582 0.946882 0
    outer loop
      vertex 1.85195 99.7716 7.6
      vertex 2.22354 99.8978 5
      vertex 1.85195 99.7716 5
    endloop
  endfacet
  facet normal -0.980786 -0.195089 0
    outer loop
      vertex 0.102222 2.22354 5
      vertex 0.0256653 2.60842 7.6
      vertex 0.0256653 2.60842 5
    endloop
  endfacet
  facet normal -0.980786 -0.195089 0
    outer loop
      vertex 0.0256653 2.60842 7.6
      vertex 0.102222 2.22354 5
      vertex 0.102222 2.22354 7.6
    endloop
  endfacet
  facet normal 0.0653993 -0.997859 0
    outer loop
      vertex 41 0 5
      vertex 41.3916 0.0256653 7.6
      vertex 41 0 7.6
    endloop
  endfacet
  facet normal 0.0653993 -0.997859 0
    outer loop
      vertex 41.3916 0.0256653 7.6
      vertex 41 0 5
      vertex 41.3916 0.0256653 5
    endloop
  endfacet
  facet normal -0.555577 -0.831465 0
    outer loop
      vertex 1.17372 0.61994 5
      vertex 1.5 0.401923 7.6
      vertex 1.17372 0.61994 7.6
    endloop
  endfacet
  facet normal -0.555577 -0.831465 -0
    outer loop
      vertex 1.5 0.401923 7.6
      vertex 1.17372 0.61994 5
      vertex 1.5 0.401923 5
    endloop
  endfacet
  facet normal 0.997853 -0.0654906 0
    outer loop
      vertex 43.9743 2.60842 7.6
      vertex 44 3 5
      vertex 44 3 7.6
    endloop
  endfacet
  facet normal 0.997853 -0.0654906 0
    outer loop
      vertex 44 3 5
      vertex 43.9743 2.60842 7.6
      vertex 43.9743 2.60842 5
    endloop
  endfacet
  facet normal -0.997859 -0.0654026 0
    outer loop
      vertex 0.0256653 2.60842 5
      vertex 0 3 7.6
      vertex 0 3 5
    endloop
  endfacet
  facet normal -0.997859 -0.0654026 0
    outer loop
      vertex 0 3 7.6
      vertex 0.0256653 2.60842 5
      vertex 0.0256653 2.60842 7.6
    endloop
  endfacet
  facet normal -0.751846 -0.659339 0
    outer loop
      vertex 0.878679 0.878679 5
      vertex 0.61994 1.17372 7.6
      vertex 0.61994 1.17372 5
    endloop
  endfacet
  facet normal -0.751846 -0.659339 0
    outer loop
      vertex 0.61994 1.17372 7.6
      vertex 0.878679 0.878679 5
      vertex 0.878679 0.878679 7.6
    endloop
  endfacet
  facet normal 0.896961 0.44211 0
    outer loop
      vertex 43.7716 98.148 7.6
      vertex 43.5981 98.5 5
      vertex 43.5981 98.5 7.6
    endloop
  endfacet
  facet normal 0.896961 0.44211 0
    outer loop
      vertex 43.5981 98.5 5
      vertex 43.7716 98.148 7.6
      vertex 43.7716 98.148 5
    endloop
  endfacet
  facet normal -0.751801 0.65939 0
    outer loop
      vertex 0.61994 98.8263 5
      vertex 0.878679 99.1213 7.6
      vertex 0.878679 99.1213 5
    endloop
  endfacet
  facet normal -0.751801 0.65939 0
    outer loop
      vertex 0.878679 99.1213 7.6
      vertex 0.61994 98.8263 5
      vertex 0.61994 98.8263 7.6
    endloop
  endfacet
  facet normal -0.896898 0.442237 0
    outer loop
      vertex 0.228361 98.148 5
      vertex 0.401923 98.5 7.6
      vertex 0.401923 98.5 5
    endloop
  endfacet
  facet normal -0.896898 0.442237 0
    outer loop
      vertex 0.401923 98.5 7.6
      vertex 0.228361 98.148 5
      vertex 0.228361 98.148 7.6
    endloop
  endfacet
  facet normal -0 0 1
    outer loop
      vertex 3 48 7.6
      vertex 5 22 7.6
      vertex 5 48 7.6
    endloop
  endfacet
  facet normal 0 0 1
    outer loop
      vertex 5 22 7.6
      vertex 3 48 7.6
      vertex 3 22 7.6
    endloop
  endfacet
  facet normal -0 0 1
    outer loop
      vertex 3 78 7.6
      vertex 5 52 7.6
      vertex 5 78 7.6
    endloop
  endfacet
  facet normal 0 0 1
    outer loop
      vertex 5 52 7.6
      vertex 3 78 7.6
      vertex 3 52 7.6
    endloop
  endfacet
  facet normal -0 0 1
    outer loop
      vertex 7 78 7.6
      vertex 9 52 7.6
      vertex 9 78 7.6
    endloop
  endfacet
  facet normal 0 0 1
    outer loop
      vertex 9 52 7.6
      vertex 7 78 7.6
      vertex 7 52 7.6
    endloop
  endfacet
  facet normal 0 0 1
    outer loop
      vertex 41 100 7.6
      vertex 44 97 7.6
      vertex 43.9743 97.3916 7.6
    endloop
  endfacet
  facet normal 0 0 1
    outer loop
      vertex 44 97 7.6
      vertex 9 52 7.6
      vertex 44 3 7.6
    endloop
  endfacet
  facet normal 0 0 1
    outer loop
      vertex 41 100 7.6
      vertex 43.9743 97.3916 7.6
      vertex 43.8978 97.7765 7.6
    endloop
  endfacet
  facet normal -0 0 1
    outer loop
      vertex 9 48 7.6
      vertex 44 3 7.6
      vertex 9 52 7.6
    endloop
  endfacet
  facet normal 0 0 1
    outer loop
      vertex 41 100 7.6
      vertex 43.8978 97.7765 7.6
      vertex 43.7716 98.148 7.6
    endloop
  endfacet
  facet normal -0 0 1
    outer loop
      vertex 5 22 7.6
      vertex 44 3 7.6
      vertex 9 48 7.6
    endloop
  endfacet
  facet normal 0 0 1
    outer loop
      vertex 41 100 7.6
      vertex 43.7716 98.148 7.6
      vertex 43.5981 98.5 7.6
    endloop
  endfacet
  facet normal -0 0 1
    outer loop
      vertex 5 18 7.6
      vertex 44 3 7.6
      vertex 5 22 7.6
    endloop
  endfacet
  facet normal 0 0 1
    outer loop
      vertex 41 100 7.6
      vertex 43.5981 98.5 7.6
      vertex 43.3801 98.8263 7.6
    endloop
  endfacet
  facet normal 0 -0 1
    outer loop
      vertex 41 0 7.6
      vertex 44 3 7.6
      vertex 5 18 7.6
    endloop
  endfacet
  facet normal 0 0 1
    outer loop
      vertex 41 100 7.6
      vertex 43.3801 98.8263 7.6
      vertex 43.1213 99.1213 7.6
    endloop
  endfacet
  facet normal 0 0 1
    outer loop
      vertex 44 3 7.6
      vertex 41 0 7.6
      vertex 43.9743 2.60842 7.6
    endloop
  endfacet
  facet normal 0 0 1
    outer loop
      vertex 41 100 7.6
      vertex 43.1213 99.1213 7.6
      vertex 42.8263 99.3801 7.6
    endloop
  endfacet
  facet normal 0 0 1
    outer loop
      vertex 43.8978 2.22354 7.6
      vertex 41 0 7.6
      vertex 43.7716 1.85195 7.6
    endloop
  endfacet
  facet normal 0 0 1
    outer loop
      vertex 41 100 7.6
      vertex 42.8263 99.3801 7.6
      vertex 42.5 99.5981 7.6
    endloop
  endfacet
  facet normal 0 0 1
    outer loop
      vertex 43.7716 1.85195 7.6
      vertex 41 0 7.6
      vertex 43.5981 1.5 7.6
    endloop
  endfacet
  facet normal 0 0 1
    outer loop
      vertex 41 100 7.6
      vertex 42.5 99.5981 7.6
      vertex 42.148 99.7716 7.6
    endloop
  endfacet
  facet normal 0 0 1
    outer loop
      vertex 43.5981 1.5 7.6
      vertex 41 0 7.6
      vertex 43.3801 1.17372 7.6
    endloop
  endfacet
  facet normal 0 0 1
    outer loop
      vertex 41 100 7.6
      vertex 42.148 99.7716 7.6
      vertex 41.7765 99.8978 7.6
    endloop
  endfacet
  facet normal 0 0 1
    outer loop
      vertex 43.3801 1.17372 7.6
      vertex 41 0 7.6
      vertex 43.1213 0.878679 7.6
    endloop
  endfacet
  facet normal 0 0 1
    outer loop
      vertex 41 100 7.6
      vertex 41.7765 99.8978 7.6
      vertex 41.3916 99.9743 7.6
    endloop
  endfacet
  facet normal 0 0 1
    outer loop
      vertex 43.1213 0.878679 7.6
      vertex 41 0 7.6
      vertex 42.8263 0.61994 7.6
    endloop
  endfacet
  facet normal 0 0 1
    outer loop
      vertex 44 97 7.6
      vertex 41 100 7.6
      vertex 13 82 7.6
    endloop
  endfacet
  facet normal 0 0 1
    outer loop
      vertex 42.5 0.401923 7.6
      vertex 41 0 7.6
      vertex 42.148 0.228361 7.6
    endloop
  endfacet
  facet normal 0 0 1
    outer loop
      vertex 44 97 7.6
      vertex 13 82 7.6
      vertex 13 78 7.6
    endloop
  endfacet
  facet normal -0 0 1
    outer loop
      vertex 3 100 7.6
      vertex 13 82 7.6
      vertex 41 100 7.6
    endloop
  endfacet
  facet normal 0 0 1
    outer loop
      vertex 11 82 7.6
      vertex 9 82 7.6
      vertex 11 78 7.6
    endloop
  endfacet
  facet normal 0 0 1
    outer loop
      vertex 13 82 7.6
      vertex 3 100 7.6
      vertex 11 82 7.6
    endloop
  endfacet
  facet normal 0 0 1
    outer loop
      vertex 11 82 7.6
      vertex 3 100 7.6
      vertex 9 82 7.6
    endloop
  endfacet
  facet normal 0 0 1
    outer loop
      vertex 5 78 7.6
      vertex 7 78 7.6
      vertex 7 82 7.6
    endloop
  endfacet
  facet normal 0 0 1
    outer loop
      vertex 7 78 7.6
      vertex 5 78 7.6
      vertex 7 52 7.6
    endloop
  endfacet
  facet normal 0 0 1
    outer loop
      vertex 5 78 7.6
      vertex 7 82 7.6
      vertex 5 82 7.6
    endloop
  endfacet
  facet normal -0 0 1
    outer loop
      vertex 0 97 7.6
      vertex 9 82 7.6
      vertex 3 100 7.6
    endloop
  endfacet
  facet normal 0 0 1
    outer loop
      vertex 9 82 7.6
      vertex 0 97 7.6
      vertex 7 82 7.6
    endloop
  endfacet
  facet normal 0 0 1
    outer loop
      vertex 7 82 7.6
      vertex 0 97 7.6
      vertex 5 82 7.6
    endloop
  endfacet
  facet normal 0 0 1
    outer loop
      vertex 5 82 7.6
      vertex 0 97 7.6
      vertex 3 82 7.6
    endloop
  endfacet
  facet normal 0 0 1
    outer loop
      vertex 3 82 7.6
      vertex 0 97 7.6
      vertex 3 78 7.6
    endloop
  endfacet
  facet normal 0 0 1
    outer loop
      vertex 3 78 7.6
      vertex 0 97 7.6
      vertex 3 52 7.6
    endloop
  endfacet
  facet normal 0 0 1
    outer loop
      vertex 3 52 7.6
      vertex 0 97 7.6
      vertex 3 48 7.6
    endloop
  endfacet
  facet normal 0 0 1
    outer loop
      vertex 0 3 7.6
      vertex 3 48 7.6
      vertex 0 97 7.6
    endloop
  endfacet
  facet normal 0 0 1
    outer loop
      vertex 3 48 7.6
      vertex 0 3 7.6
      vertex 3 22 7.6
    endloop
  endfacet
  facet normal 0 0 1
    outer loop
      vertex 0 97 7.6
      vertex 3 100 7.6
      vertex 2.60842 99.9743 7.6
    endloop
  endfacet
  facet normal 0 0 1
    outer loop
      vertex 3 22 7.6
      vertex 0 3 7.6
      vertex 3 18 7.6
    endloop
  endfacet
  facet normal 0 0 1
    outer loop
      vertex 0 97 7.6
      vertex 2.60842 99.9743 7.6
      vertex 2.22354 99.8978 7.6
    endloop
  endfacet
  facet normal 0 0 1
    outer loop
      vertex 3 18 7.6
      vertex 0 3 7.6
      vertex 3 0 7.6
    endloop
  endfacet
  facet normal 0 0 1
    outer loop
      vertex 0 97 7.6
      vertex 2.22354 99.8978 7.6
      vertex 1.85195 99.7716 7.6
    endloop
  endfacet
  facet normal 0 0 1
    outer loop
      vertex 3 0 7.6
      vertex 0 3 7.6
      vertex 2.60842 0.0256653 7.6
    endloop
  endfacet
  facet normal 0 0 1
    outer loop
      vertex 0 97 7.6
      vertex 1.85195 99.7716 7.6
      vertex 1.5 99.5981 7.6
    endloop
  endfacet
  facet normal 0 0 1
    outer loop
      vertex 2.60842 0.0256653 7.6
      vertex 0 3 7.6
      vertex 2.22354 0.102222 7.6
    endloop
  endfacet
  facet normal 0 0 1
    outer loop
      vertex 0 97 7.6
      vertex 1.5 99.5981 7.6
      vertex 1.17372 99.3801 7.6
    endloop
  endfacet
  facet normal 0 0 1
    outer loop
      vertex 2.22354 0.102222 7.6
      vertex 0 3 7.6
      vertex 1.85195 0.228361 7.6
    endloop
  endfacet
  facet normal 0 0 1
    outer loop
      vertex 0 97 7.6
      vertex 1.17372 99.3801 7.6
      vertex 0.878679 99.1213 7.6
    endloop
  endfacet
  facet normal 0 0 1
    outer loop
      vertex 1.85195 0.228361 7.6
      vertex 0 3 7.6
      vertex 1.5 0.401923 7.6
    endloop
  endfacet
  facet normal 0 0 1
    outer loop
      vertex 0 97 7.6
      vertex 0.878679 99.1213 7.6
      vertex 0.61994 98.8263 7.6
    endloop
  endfacet
  facet normal 0 0 1
    outer loop
      vertex 1.5 0.401923 7.6
      vertex 0 3 7.6
      vertex 1.17372 0.61994 7.6
    endloop
  endfacet
  facet normal 0 0 1
    outer loop
      vertex 0 97 7.6
      vertex 0.61994 98.8263 7.6
      vertex 0.401923 98.5 7.6
    endloop
  endfacet
  facet normal 0 0 1
    outer loop
      vertex 1.17372 0.61994 7.6
      vertex 0 3 7.6
      vertex 0.878679 0.878679 7.6
    endloop
  endfacet
  facet normal 0 0 1
    outer loop
      vertex 0 97 7.6
      vertex 0.401923 98.5 7.6
      vertex 0.228361 98.148 7.6
    endloop
  endfacet
  facet normal 0 0 1
    outer loop
      vertex 0.878679 0.878679 7.6
      vertex 0 3 7.6
      vertex 0.61994 1.17372 7.6
    endloop
  endfacet
  facet normal 0 0 1
    outer loop
      vertex 0 97 7.6
      vertex 0.228361 98.148 7.6
      vertex 0.102222 97.7765 7.6
    endloop
  endfacet
  facet normal 0 0 1
    outer loop
      vertex 0.61994 1.17372 7.6
      vertex 0 3 7.6
      vertex 0.401923 1.5 7.6
    endloop
  endfacet
  facet normal 0 0 1
    outer loop
      vertex 0 97 7.6
      vertex 0.102222 97.7765 7.6
      vertex 0.0256653 97.3916 7.6
    endloop
  endfacet
  facet normal 0 0 1
    outer loop
      vertex 0.401923 1.5 7.6
      vertex 0 3 7.6
      vertex 0.228361 1.85195 7.6
    endloop
  endfacet
  facet normal 0 0 1
    outer loop
      vertex 0.228361 1.85195 7.6
      vertex 0 3 7.6
      vertex 0.102222 2.22354 7.6
    endloop
  endfacet
  facet normal 0 0 1
    outer loop
      vertex 0.102222 2.22354 7.6
      vertex 0 3 7.6
      vertex 0.0256653 2.60842 7.6
    endloop
  endfacet
  facet normal 0 0 1
    outer loop
      vertex 44 97 7.6
      vertex 13 78 7.6
      vertex 9 52 7.6
    endloop
  endfacet
  facet normal 0 0 1
    outer loop
      vertex 9 52 7.6
      vertex 13 78 7.6
      vertex 11 78 7.6
    endloop
  endfacet
  facet normal 0 0 1
    outer loop
      vertex 9 78 7.6
      vertex 11 78 7.6
      vertex 9 82 7.6
    endloop
  endfacet
  facet normal 0 0 1
    outer loop
      vertex 9 52 7.6
      vertex 11 78 7.6
      vertex 9 78 7.6
    endloop
  endfacet
  facet normal 0 0 1
    outer loop
      vertex 42.148 0.228361 7.6
      vertex 41 0 7.6
      vertex 41.7765 0.102222 7.6
    endloop
  endfacet
  facet normal 0 0 1
    outer loop
      vertex 41.7765 0.102222 7.6
      vertex 41 0 7.6
      vertex 41.3916 0.0256653 7.6
    endloop
  endfacet
  facet normal 0 0 1
    outer loop
      vertex 5 22 7.6
      vertex 9 48 7.6
      vertex 7 48 7.6
    endloop
  endfacet
  facet normal 0 0 1
    outer loop
      vertex 5 52 7.6
      vertex 7 52 7.6
      vertex 5 78 7.6
    endloop
  endfacet
  facet normal 0 0 1
    outer loop
      vertex 7 52 7.6
      vertex 5 52 7.6
      vertex 7 48 7.6
    endloop
  endfacet
  facet normal 0 0 1
    outer loop
      vertex 5 48 7.6
      vertex 7 48 7.6
      vertex 5 52 7.6
    endloop
  endfacet
  facet normal 0 0 1
    outer loop
      vertex 5 22 7.6
      vertex 7 48 7.6
      vertex 5 48 7.6
    endloop
  endfacet
  facet normal 0 0 1
    outer loop
      vertex 42.8263 0.61994 7.6
      vertex 41 0 7.6
      vertex 42.5 0.401923 7.6
    endloop
  endfacet
  facet normal 0 0 1
    outer loop
      vertex 43.9743 2.60842 7.6
      vertex 41 0 7.6
      vertex 43.8978 2.22354 7.6
    endloop
  endfacet
  facet normal 0 0 1
    outer loop
      vertex 3 0 7.6
      vertex 5 18 7.6
      vertex 3 18 7.6
    endloop
  endfacet
  facet normal 0 0 1
    outer loop
      vertex 5 18 7.6
      vertex 3 0 7.6
      vertex 41 0 7.6
    endloop
  endfacet
  facet normal -0.659339 -0.751846 0
    outer loop
      vertex 0.878679 0.878679 5
      vertex 1.17372 0.61994 7.6
      vertex 0.878679 0.878679 7.6
    endloop
  endfacet
  facet normal -0.659339 -0.751846 -0
    outer loop
      vertex 1.17372 0.61994 7.6
      vertex 0.878679 0.878679 5
      vertex 1.17372 0.61994 5
    endloop
  endfacet
  facet normal 0.659478 0.751724 -0
    outer loop
      vertex 43.1213 99.1213 5
      vertex 42.8263 99.3801 7.6
      vertex 43.1213 99.1213 7.6
    endloop
  endfacet
  facet normal 0.659478 0.751724 0
    outer loop
      vertex 42.8263 99.3801 7.6
      vertex 43.1213 99.1213 5
      vertex 42.8263 99.3801 5
    endloop
  endfacet
  facet normal -0.980788 0.195079 0
    outer loop
      vertex 0.0256653 97.3916 5
      vertex 0.102222 97.7765 7.6
      vertex 0.102222 97.7765 5
    endloop
  endfacet
  facet normal -0.980788 0.195079 0
    outer loop
      vertex 0.102222 97.7765 7.6
      vertex 0.0256653 97.3916 5
      vertex 0.0256653 97.3916 7.6
    endloop
  endfacet
  facet normal -0.44216 0.896936 0
    outer loop
      vertex 1.85195 99.7716 5
      vertex 1.5 99.5981 7.6
      vertex 1.85195 99.7716 7.6
    endloop
  endfacet
  facet normal -0.44216 0.896936 0
    outer loop
      vertex 1.5 99.5981 7.6
      vertex 1.85195 99.7716 5
      vertex 1.5 99.5981 5
    endloop
  endfacet
  facet normal 0.195079 -0.980788 0
    outer loop
      vertex 41.3916 0.0256653 5
      vertex 41.7765 0.102222 7.6
      vertex 41.3916 0.0256653 7.6
    endloop
  endfacet
  facet normal 0.195079 -0.980788 0
    outer loop
      vertex 41.7765 0.102222 7.6
      vertex 41.3916 0.0256653 5
      vertex 41.7765 0.102222 5
    endloop
  endfacet
  facet normal 0.19494 0.980815 -0
    outer loop
      vertex 41.7765 99.8978 5
      vertex 41.3916 99.9743 7.6
      vertex 41.7765 99.8978 7.6
    endloop
  endfacet
  facet normal 0.19494 0.980815 0
    outer loop
      vertex 41.3916 99.9743 7.6
      vertex 41.7765 99.8978 5
      vertex 41.3916 99.9743 5
    endloop
  endfacet
  facet normal -0.19495 0.980813 0
    outer loop
      vertex 2.60842 99.9743 5
      vertex 2.22354 99.8978 7.6
      vertex 2.60842 99.9743 7.6
    endloop
  endfacet
  facet normal -0.19495 0.980813 0
    outer loop
      vertex 2.22354 99.8978 7.6
      vertex 2.60842 99.9743 5
      vertex 2.22354 99.8978 5
    endloop
  endfacet
  facet normal 0.442237 -0.896898 0
    outer loop
      vertex 42.148 0.228361 5
      vertex 42.5 0.401923 7.6
      vertex 42.148 0.228361 7.6
    endloop
  endfacet
  facet normal 0.442237 -0.896898 0
    outer loop
      vertex 42.5 0.401923 7.6
      vertex 42.148 0.228361 5
      vertex 42.5 0.401923 5
    endloop
  endfacet
  facet normal -0.946929 -0.321442 0
    outer loop
      vertex 0.228361 1.85195 5
      vertex 0.102222 2.22354 7.6
      vertex 0.102222 2.22354 5
    endloop
  endfacet
  facet normal -0.946929 -0.321442 0
    outer loop
      vertex 0.102222 2.22354 7.6
      vertex 0.228361 1.85195 5
      vertex 0.228361 1.85195 7.6
    endloop
  endfacet
  facet normal -0.946905 0.321512 0
    outer loop
      vertex 0.102222 97.7765 5
      vertex 0.228361 98.148 7.6
      vertex 0.228361 98.148 5
    endloop
  endfacet
  facet normal -0.946905 0.321512 0
    outer loop
      vertex 0.228361 98.148 7.6
      vertex 0.102222 97.7765 5
      vertex 0.102222 97.7765 7.6
    endloop
  endfacet
  facet normal 0.321651 0.946858 -0
    outer loop
      vertex 42.148 99.7716 5
      vertex 41.7765 99.8978 7.6
      vertex 42.148 99.7716 7.6
    endloop
  endfacet
  facet normal 0.321651 0.946858 0
    outer loop
      vertex 41.7765 99.8978 7.6
      vertex 42.148 99.7716 5
      vertex 41.7765 99.8978 5
    endloop
  endfacet
  facet normal 0.831501 0.555523 0
    outer loop
      vertex 43.5981 98.5 7.6
      vertex 43.3801 98.8263 5
      vertex 43.3801 98.8263 7.6
    endloop
  endfacet
  facet normal 0.831501 0.555523 0
    outer loop
      vertex 43.3801 98.8263 5
      vertex 43.5981 98.5 7.6
      vertex 43.5981 98.5 5
    endloop
  endfacet
  facet normal -0.659426 0.751769 0
    outer loop
      vertex 1.17372 99.3801 5
      vertex 0.878679 99.1213 7.6
      vertex 1.17372 99.3801 7.6
    endloop
  endfacet
  facet normal -0.659426 0.751769 0
    outer loop
      vertex 0.878679 99.1213 7.6
      vertex 1.17372 99.3801 5
      vertex 0.878679 99.1213 5
    endloop
  endfacet
  facet normal -0.555547 0.831485 0
    outer loop
      vertex 1.5 99.5981 5
      vertex 1.17372 99.3801 7.6
      vertex 1.5 99.5981 7.6
    endloop
  endfacet
  facet normal -0.555547 0.831485 0
    outer loop
      vertex 1.17372 99.3801 7.6
      vertex 1.5 99.5981 5
      vertex 1.17372 99.3801 5
    endloop
  endfacet
  facet normal 0.555523 0.831501 -0
    outer loop
      vertex 42.8263 99.3801 5
      vertex 42.5 99.5981 7.6
      vertex 42.8263 99.3801 7.6
    endloop
  endfacet
  facet normal 0.555523 0.831501 0
    outer loop
      vertex 42.5 99.5981 7.6
      vertex 42.8263 99.3801 5
      vertex 42.5 99.5981 5
    endloop
  endfacet
  facet normal 0.980813 -0.19495 0
    outer loop
      vertex 43.8978 2.22354 7.6
      vertex 43.9743 2.60842 5
      vertex 43.9743 2.60842 7.6
    endloop
  endfacet
  facet normal 0.980813 -0.19495 0
    outer loop
      vertex 43.9743 2.60842 5
      vertex 43.8978 2.22354 7.6
      vertex 43.8978 2.22354 5
    endloop
  endfacet
  facet normal 0.555553 -0.831481 0
    outer loop
      vertex 42.5 0.401923 5
      vertex 42.8263 0.61994 7.6
      vertex 42.5 0.401923 7.6
    endloop
  endfacet
  facet normal 0.555553 -0.831481 0
    outer loop
      vertex 42.8263 0.61994 7.6
      vertex 42.5 0.401923 5
      vertex 42.8263 0.61994 5
    endloop
  endfacet
  facet normal 0.896936 -0.44216 0
    outer loop
      vertex 43.5981 1.5 7.6
      vertex 43.7716 1.85195 5
      vertex 43.7716 1.85195 7.6
    endloop
  endfacet
  facet normal 0.896936 -0.44216 0
    outer loop
      vertex 43.7716 1.85195 5
      vertex 43.5981 1.5 7.6
      vertex 43.5981 1.5 5
    endloop
  endfacet
  facet normal 0.751769 -0.659426 0
    outer loop
      vertex 43.1213 0.878679 7.6
      vertex 43.3801 1.17372 5
      vertex 43.3801 1.17372 7.6
    endloop
  endfacet
  facet normal 0.751769 -0.659426 0
    outer loop
      vertex 43.3801 1.17372 5
      vertex 43.1213 0.878679 7.6
      vertex 43.1213 0.878679 5
    endloop
  endfacet
  facet normal -1 0 0
    outer loop
      vertex 5 48 6.2
      vertex 5 52 7.6
      vertex 5 52 6.2
    endloop
  endfacet
  facet normal -1 -0 0
    outer loop
      vertex 5 52 7.6
      vertex 5 48 6.2
      vertex 5 48 7.6
    endloop
  endfacet
  facet normal -0 0 1
    outer loop
      vertex 3 52 6.2
      vertex 5 48 6.2
      vertex 5 52 6.2
    endloop
  endfacet
  facet normal 0 0 1
    outer loop
      vertex 5 48 6.2
      vertex 3 52 6.2
      vertex 3 48 6.2
    endloop
  endfacet
  facet normal 1 -0 0
    outer loop
      vertex 3 48 7.6
      vertex 3 52 6.2
      vertex 3 52 7.6
    endloop
  endfacet
  facet normal 1 0 0
    outer loop
      vertex 3 52 6.2
      vertex 3 48 7.6
      vertex 3 48 6.2
    endloop
  endfacet
  facet normal 0 -1 0
    outer loop
      vertex 3 52 6.2
      vertex 5 52 7.6
      vertex 3 52 7.6
    endloop
  endfacet
  facet normal 0 -1 -0
    outer loop
      vertex 5 52 7.6
      vertex 3 52 6.2
      vertex 5 52 6.2
    endloop
  endfacet
  facet normal 0 1 -0
    outer loop
      vertex 5 48 6.2
      vertex 3 48 7.6
      vertex 5 48 7.6
    endloop
  endfacet
  facet normal 0 1 0
    outer loop
      vertex 3 48 7.6
      vertex 5 48 6.2
      vertex 3 48 6.2
    endloop
  endfacet
  facet normal -1 0 0
    outer loop
      vertex 9 48 6.2
      vertex 9 52 7.6
      vertex 9 52 6.2
    endloop
  endfacet
  facet normal -1 -0 0
    outer loop
      vertex 9 52 7.6
      vertex 9 48 6.2
      vertex 9 48 7.6
    endloop
  endfacet
  facet normal -0 0 1
    outer loop
      vertex 7 52 6.2
      vertex 9 48 6.2
      vertex 9 52 6.2
    endloop
  endfacet
  facet normal 0 0 1
    outer loop
      vertex 9 48 6.2
      vertex 7 52 6.2
      vertex 7 48 6.2
    endloop
  endfacet
  facet normal 1 -0 0
    outer loop
      vertex 7 48 7.6
      vertex 7 52 6.2
      vertex 7 52 7.6
    endloop
  endfacet
  facet normal 1 0 0
    outer loop
      vertex 7 52 6.2
      vertex 7 48 7.6
      vertex 7 48 6.2
    endloop
  endfacet
  facet normal 0 -1 0
    outer loop
      vertex 7 52 6.2
      vertex 9 52 7.6
      vertex 7 52 7.6
    endloop
  endfacet
  facet normal 0 -1 -0
    outer loop
      vertex 9 52 7.6
      vertex 7 52 6.2
      vertex 9 52 6.2
    endloop
  endfacet
  facet normal 0 1 -0
    outer loop
      vertex 9 48 6.2
      vertex 7 48 7.6
      vertex 9 48 7.6
    endloop
  endfacet
  facet normal 0 1 0
    outer loop
      vertex 7 48 7.6
      vertex 9 48 6.2
      vertex 7 48 6.2
    endloop
  endfacet
  facet normal -1 0 0
    outer loop
      vertex 5 78 6.2
      vertex 5 82 7.6
      vertex 5 82 6.2
    endloop
  endfacet
  facet normal -1 -0 0
    outer loop
      vertex 5 82 7.6
      vertex 5 78 6.2
      vertex 5 78 7.6
    endloop
  endfacet
  facet normal -0 0 1
    outer loop
      vertex 3 82 6.2
      vertex 5 78 6.2
      vertex 5 82 6.2
    endloop
  endfacet
  facet normal 0 0 1
    outer loop
      vertex 5 78 6.2
      vertex 3 82 6.2
      vertex 3 78 6.2
    endloop
  endfacet
  facet normal 1 -0 0
    outer loop
      vertex 3 78 7.6
      vertex 3 82 6.2
      vertex 3 82 7.6
    endloop
  endfacet
  facet normal 1 0 0
    outer loop
      vertex 3 82 6.2
      vertex 3 78 7.6
      vertex 3 78 6.2
    endloop
  endfacet
  facet normal 0 -1 0
    outer loop
      vertex 3 82 6.2
      vertex 5 82 7.6
      vertex 3 82 7.6
    endloop
  endfacet
  facet normal 0 -1 -0
    outer loop
      vertex 5 82 7.6
      vertex 3 82 6.2
      vertex 5 82 6.2
    endloop
  endfacet
  facet normal 0 1 -0
    outer loop
      vertex 5 78 6.2
      vertex 3 78 7.6
      vertex 5 78 7.6
    endloop
  endfacet
  facet normal 0 1 0
    outer loop
      vertex 3 78 7.6
      vertex 5 78 6.2
      vertex 3 78 6.2
    endloop
  endfacet
  facet normal -1 0 0
    outer loop
      vertex 9 78 6.2
      vertex 9 82 7.6
      vertex 9 82 6.2
    endloop
  endfacet
  facet normal -1 -0 0
    outer loop
      vertex 9 82 7.6
      vertex 9 78 6.2
      vertex 9 78 7.6
    endloop
  endfacet
  facet normal -0 0 1
    outer loop
      vertex 7 82 6.2
      vertex 9 78 6.2
      vertex 9 82 6.2
    endloop
  endfacet
  facet normal 0 0 1
    outer loop
      vertex 9 78 6.2
      vertex 7 82 6.2
      vertex 7 78 6.2
    endloop
  endfacet
  facet normal 1 -0 0
    outer loop
      vertex 7 78 7.6
      vertex 7 82 6.2
      vertex 7 82 7.6
    endloop
  endfacet
  facet normal 1 0 0
    outer loop
      vertex 7 82 6.2
      vertex 7 78 7.6
      vertex 7 78 6.2
    endloop
  endfacet
  facet normal 0 -1 0
    outer loop
      vertex 7 82 6.2
      vertex 9 82 7.6
      vertex 7 82 7.6
    endloop
  endfacet
  facet normal 0 -1 -0
    outer loop
      vertex 9 82 7.6
      vertex 7 82 6.2
      vertex 9 82 6.2
    endloop
  endfacet
  facet normal 0 1 -0
    outer loop
      vertex 9 78 6.2
      vertex 7 78 7.6
      vertex 9 78 7.6
    endloop
  endfacet
  facet normal 0 1 0
    outer loop
      vertex 7 78 7.6
      vertex 9 78 6.2
      vertex 7 78 6.2
    endloop
  endfacet
  facet normal -1 0 0
    outer loop
      vertex 13 78 6.2
      vertex 13 82 7.6
      vertex 13 82 6.2
    endloop
  endfacet
  facet normal -1 -0 0
    outer loop
      vertex 13 82 7.6
      vertex 13 78 6.2
      vertex 13 78 7.6
    endloop
  endfacet
  facet normal -0 0 1
    outer loop
      vertex 11 82 6.2
      vertex 13 78 6.2
      vertex 13 82 6.2
    endloop
  endfacet
  facet normal 0 0 1
    outer loop
      vertex 13 78 6.2
      vertex 11 82 6.2
      vertex 11 78 6.2
    endloop
  endfacet
  facet normal 1 -0 0
    outer loop
      vertex 11 78 7.6
      vertex 11 82 6.2
      vertex 11 82 7.6
    endloop
  endfacet
  facet normal 1 0 0
    outer loop
      vertex 11 82 6.2
      vertex 11 78 7.6
      vertex 11 78 6.2
    endloop
  endfacet
  facet normal 0 -1 0
    outer loop
      vertex 11 82 6.2
      vertex 13 82 7.6
      vertex 11 82 7.6
    endloop
  endfacet
  facet normal 0 -1 -0
    outer loop
      vertex 13 82 7.6
      vertex 11 82 6.2
      vertex 13 82 6.2
    endloop
  endfacet
  facet normal 0 1 -0
    outer loop
      vertex 13 78 6.2
      vertex 11 78 7.6
      vertex 13 78 7.6
    endloop
  endfacet
  facet normal 0 1 0
    outer loop
      vertex 11 78 7.6
      vertex 13 78 6.2
      vertex 11 78 6.2
    endloop
  endfacet
  facet normal -1 0 0
    outer loop
      vertex 5 18 6.2
      vertex 5 22 7.6
      vertex 5 22 6.2
    endloop
  endfacet
  facet normal -1 -0 0
    outer loop
      vertex 5 22 7.6
      vertex 5 18 6.2
      vertex 5 18 7.6
    endloop
  endfacet
  facet normal -0 0 1
    outer loop
      vertex 3 22 6.2
      vertex 5 18 6.2
      vertex 5 22 6.2
    endloop
  endfacet
  facet normal 0 0 1
    outer loop
      vertex 5 18 6.2
      vertex 3 22 6.2
      vertex 3 18 6.2
    endloop
  endfacet
  facet normal 1 -0 0
    outer loop
      vertex 3 18 7.6
      vertex 3 22 6.2
      vertex 3 22 7.6
    endloop
  endfacet
  facet normal 1 0 0
    outer loop
      vertex 3 22 6.2
      vertex 3 18 7.6
      vertex 3 18 6.2
    endloop
  endfacet
  facet normal 0 -1 0
    outer loop
      vertex 3 22 6.2
      vertex 5 22 7.6
      vertex 3 22 7.6
    endloop
  endfacet
  facet normal 0 -1 -0
    outer loop
      vertex 5 22 7.6
      vertex 3 22 6.2
      vertex 5 22 6.2
    endloop
  endfacet
  facet normal 0 1 -0
    outer loop
      vertex 5 18 6.2
      vertex 3 18 7.6
      vertex 5 18 7.6
    endloop
  endfacet
  facet normal 0 1 0
    outer loop
      vertex 3 18 7.6
      vertex 5 18 6.2
      vertex 3 18 6.2
    endloop
  endfacet
endsolid OpenSCAD_Model
